NotoSerifEthiopic-CondensedLight.ufo
<glyph name="ree-ethiopic" format="2">
  <advance width="485"/>
  <unicode hex="122C"/>
  <note>
uni122C
</note>
  <anchor x="256" y="716" name="top"/>
  <outline>
    <contour>
      <point x="246" y="0" type="line"/>
      <point x="347" y="0" type="line"/>
      <point x="347" y="7" type="line"/>
      <point x="313" y="25" type="line"/>
      <point x="246" y="25" type="line"/>
    </contour>
    <component base="nose"/>
    <component base="ballbig" xOffset="221" yOffset="-171"/>
  </outline>
</glyph>
<glyph name="sho-ethiopic" format="2">
  <advance width="475"/>
  <unicode hex="123E"/>
  <note>
uni123E
</note>
  <anchor x="240" y="794" name="top"/>
  <outline>
    <contour>
      <point x="231" y="591" type="line"/>
      <point x="258" y="591" type="line"/>
      <point x="258" y="751" type="line"/>
      <point x="231" y="751" type="line"/>
    </contour>
    <component base="boshort" xOffset="-5"/>
    <component base="bonemiddle" xOffset="40" yOffset="-12"/>
  </outline>
</glyph>
<glyph name="qhi-ethiopic" format="2">
  <advance width="475"/>
  <unicode hex="1252"/>
  <note>
uni1252
</note>
  <anchor x="237" y="794" name="top"/>
  <outline>
    <contour>
      <point x="238" y="0" type="curve"/>
      <point x="291" y="0" type="line"/>
      <point x="291" y="25" type="line"/>
      <point x="268" y="25"/>
      <point x="252" y="34"/>
      <point x="252" y="91" type="curve" smooth="yes"/>
      <point x="252" y="748" type="line"/>
      <point x="224" y="748" type="line"/>
      <point x="224" y="89" type="line" smooth="yes"/>
      <point x="224" y="41"/>
      <point x="229" y="16"/>
    </contour>
    <component base="midring" xOffset="10" yOffset="17"/>
    <component base="bonemiddle" xOffset="33" yOffset="-12"/>
    <component base="rightdoubleflag" xOffset="259" yOffset="-1"/>
  </outline>
</glyph>
<glyph name="qhwee-ethiopic" format="2">
  <advance width="496"/>
  <unicode hex="125C"/>
  <note>
uni125C
</note>
  <anchor x="248" y="794" name="top"/>
  <outline>
    <contour>
      <point x="147" y="0" type="line"/>
      <point x="322" y="0" type="line"/>
      <point x="306" y="25" type="line"/>
      <point x="147" y="25" type="line"/>
    </contour>
    <component base="qhee-ethiopic" xOffset="10"/>
    <component base="leftsingleflag" xOffset="33" yOffset="-362"/>
  </outline>
</glyph>
<glyph name="wu-ethiopic" format="2">
  <advance width="626"/>
  <unicode hex="12C9"/>
  <note>
uni12C9
</note>
  <anchor x="323" y="714" name="top"/>
  <outline>
    <contour>
      <point x="286" y="213" type="line"/>
      <point x="478" y="213" type="line"/>
      <point x="478" y="238" type="line"/>
      <point x="286" y="238" type="line"/>
    </contour>
    <component base="wa-ethiopic"/>
    <component base="rightdoubleflag" xOffset="433" yOffset="213"/>
  </outline>
</glyph>
<glyph name="za-ethiopic" format="2">
  <advance width="500"/>
  <unicode hex="12D8"/>
  <note>
uni12D8
</note>
  <anchor x="250" y="716" name="top"/>
  <outline>
    <contour>
      <point x="112" y="366" type="line"/>
      <point x="392" y="366" type="line"/>
      <point x="392" y="391" type="line"/>
      <point x="112" y="391" type="line"/>
    </contour>
    <component base="stem1" xOffset="282"/>
    <component base="stem1"/>
  </outline>
</glyph>
<glyph name="dee-ethiopic" format="2">
  <advance width="510"/>
  <unicode hex="12F4"/>
  <note>
uni12F4
</note>
  <anchor x="255" y="663" name="top"/>
  <outline>
    <contour>
      <point x="136" y="182" type="line"/>
      <point x="363" y="182" type="line"/>
      <point x="400" y="207" type="line"/>
      <point x="136" y="207" type="line"/>
    </contour>
    <component base="ballsmall" xOffset="275" yOffset="-199"/>
    <component base="leftsingleflag" yOffset="-180"/>
    <component base="upperloop" xOffset="3" yOffset="-62"/>
  </outline>
</glyph>
<glyph name="dda-ethiopic" format="2">
  <advance width="445"/>
  <unicode hex="12F8"/>
  <note>
uni12F8
</note>
  <anchor x="222" y="830" name="top"/>
  <outline>
    <contour>
      <point x="242" y="714" type="line"/>
      <point x="269" y="714" type="line"/>
      <point x="269" y="830" type="line"/>
      <point x="242" y="830" type="line"/>
    </contour>
    <component base="da-ethiopic"/>
  </outline>
</glyph>
<glyph name="ddee-ethiopic" format="2">
  <advance width="510"/>
  <unicode hex="12FC"/>
  <note>
uni12FC
</note>
  <anchor x="255" y="773" name="top"/>
  <outline>
    <contour>
      <point x="259" y="653" type="line"/>
      <point x="286" y="653" type="line"/>
      <point x="286" y="773" type="line"/>
      <point x="259" y="773" type="line"/>
    </contour>
    <component base="dee-ethiopic"/>
  </outline>
</glyph>
<glyph name="jee-ethiopic" format="2">
  <advance width="593"/>
  <unicode hex="1304"/>
  <note>
uni1304
</note>
  <anchor x="296" y="793" name="top"/>
  <outline>
    <contour>
      <point x="139" y="182" type="line"/>
      <point x="450" y="182" type="line"/>
      <point x="483" y="207" type="line"/>
      <point x="139" y="207" type="line"/>
    </contour>
    <contour>
      <point x="308" y="609" type="line"/>
      <point x="334" y="609" type="line"/>
      <point x="334" y="749" type="line"/>
      <point x="308" y="749" type="line"/>
    </contour>
    <component base="ballsmall" xOffset="358" yOffset="-199"/>
    <component base="leftsingleflag" yOffset="-180"/>
    <component base="bonelong" xOffset="81" yOffset="-13"/>
    <component base="upperloopsmall" xOffset="145" yOffset="2"/>
  </outline>
</glyph>
<glyph name="gwee-ethiopic" format="2">
  <advance width="572"/>
  <unicode hex="1314"/>
  <note>
uni1314
</note>
  <anchor x="306" y="714" name="top"/>
  <outline>
    <contour>
      <point x="216" y="0" type="line"/>
      <point x="423" y="0" type="line"/>
      <point x="405" y="25" type="line"/>
      <point x="216" y="25" type="line"/>
    </contour>
    <component base="leftsingleflag" xOffset="36" yOffset="-362"/>
    <component base="gee-ethiopic" xOffset="25"/>
  </outline>
</glyph>
<glyph name="phee-ethiopic" format="2">
  <advance width="606"/>
  <unicode hex="1334"/>
  <note>
uni1334
</note>
  <anchor x="324" y="818" name="top"/>
  <outline>
    <contour>
      <point x="210" y="714" type="line"/>
      <point x="236" y="714" type="line"/>
      <point x="236" y="818" type="line"/>
      <point x="210" y="818" type="line"/>
    </contour>
    <component base="tsee-ethiopic"/>
  </outline>
</glyph>
<glyph name="pho-ethiopic" format="2">
  <advance width="452"/>
  <unicode hex="1336"/>
  <note>
uni1336
</note>
  <anchor x="241" y="818" name="top"/>
  <outline>
    <contour>
      <point x="206" y="714" type="line"/>
      <point x="232" y="714" type="line"/>
      <point x="232" y="818" type="line"/>
      <point x="206" y="818" type="line"/>
    </contour>
    <component base="tso-ethiopic"/>
  </outline>
</glyph>
<glyph name="sectionmark-ethiopic" format="2">
  <advance width="586"/>
  <unicode hex="1360"/>
  <note>
uni1360
</note>
  <outline>
    <contour>
      <point x="37" y="0" type="line"/>
      <point x="66" y="0" type="line"/>
      <point x="293" y="339" type="line"/>
      <point x="519" y="0" type="line"/>
      <point x="549" y="0" type="line"/>
      <point x="306" y="359" type="line"/>
      <point x="549" y="714" type="line"/>
      <point x="519" y="714" type="line"/>
      <point x="291" y="375" type="line"/>
      <point x="66" y="714" type="line"/>
      <point x="37" y="714" type="line"/>
      <point x="277" y="357" type="line"/>
    </contour>
    <component base="yizet-ethiopic" xOffset="-60" yOffset="289"/>
    <component base="yizet-ethiopic" xOffset="184" yOffset="-25"/>
    <component base="yizet-ethiopic" xOffset="184" yOffset="603"/>
    <component base="yizet-ethiopic" xOffset="430" yOffset="289"/>
  </outline>
</glyph>
<glyph name="comma-ethiopic" format="2">
  <advance width="309"/>
  <unicode hex="1363"/>
  <note>
uni1363
</note>
  <outline>
    <contour>
      <point x="76" y="546" type="line"/>
      <point x="233" y="546" type="line"/>
      <point x="233" y="574" type="line"/>
      <point x="76" y="574" type="line"/>
    </contour>
    <component base="yizet-ethiopic" xOffset="47" yOffset="108"/>
    <component base="yizet-ethiopic" xOffset="47" yOffset="315"/>
  </outline>
</glyph>
<glyph name="colon-ethiopic" format="2">
  <advance width="309"/>
  <unicode hex="1365"/>
  <note>
uni1365
</note>
  <outline>
    <contour>
      <point x="76" y="354" type="line"/>
      <point x="233" y="354" type="line"/>
      <point x="233" y="382" type="line"/>
      <point x="76" y="382" type="line"/>
    </contour>
    <component base="yizet-ethiopic" xOffset="47" yOffset="106"/>
    <component base="yizet-ethiopic" xOffset="47" yOffset="495"/>
  </outline>
</glyph>
<glyph name="prefacecolon-ethiopic" format="2">
  <advance width="463"/>
  <unicode hex="1366"/>
  <note>
uni1366
</note>
  <outline>
    <contour>
      <point x="236" y="354" type="line"/>
      <point x="393" y="354" type="line"/>
      <point x="393" y="382" type="line"/>
      <point x="236" y="382" type="line"/>
    </contour>
    <component base="yizet-ethiopic" xOffset="-8" yOffset="150"/>
    <component base="yizet-ethiopic" xOffset="-8" yOffset="451"/>
  </outline>
</glyph>
<glyph name="pwee-ethiopic" format="2">
  <advance width="457"/>
  <unicode hex="138E"/>
  <note>
uni138E
</note>
  <anchor x="228" y="714" name="top"/>
  <outline>
    <contour>
      <point x="188" y="0" type="line"/>
      <point x="306" y="0" type="line"/>
      <point x="269" y="25" type="line"/>
      <point x="188" y="25" type="line"/>
    </contour>
    <component base="pee-ethiopic"/>
    <component base="leftsingleflag" xOffset="55" yOffset="-362"/>
  </outline>
</glyph>
<glyph name="moa-ethiopic" format="2">
  <advance width="680"/>
  <unicode hex="2D81"/>
  <note>
uni2D81
</note>
  <anchor x="338" y="714" name="top"/>
  <outline>
    <contour>
      <point x="166" y="124" type="line"/>
      <point x="292" y="124" type="line"/>
      <point x="292" y="149" type="line"/>
      <point x="166" y="149" type="line"/>
    </contour>
    <component base="mo-ethiopic" xOffset="-4"/>
    <component base="leftdoubleflag" yOffset="124"/>
  </outline>
</glyph>
<glyph name="shoa-ethiopic" format="2">
  <advance width="560"/>
  <unicode hex="2D84"/>
  <note>
uni2D84
</note>
  <anchor x="262" y="794" name="top"/>
  <outline>
    <contour>
      <point x="328" y="591" type="line"/>
      <point x="355" y="591" type="line"/>
      <point x="355" y="751" type="line"/>
      <point x="328" y="751" type="line"/>
    </contour>
    <component base="boshort" xOffset="100"/>
    <component base="bonemiddle" xOffset="139" yOffset="-12"/>
    <component base="leftdoubleflag" xOffset="-10" yOffset="296"/>
  </outline>
</glyph>
<glyph name="poa-ethiopic" format="2">
  <advance width="578"/>
  <unicode hex="2D92"/>
  <note>
uni2D92
</note>
  <anchor x="289" y="714" name="top"/>
  <outline>
    <contour>
      <point x="161" y="367" type="line"/>
      <point x="244" y="367" type="line"/>
      <point x="262" y="392" type="line"/>
      <point x="161" y="392" type="line"/>
    </contour>
    <component base="po-ethiopic" xOffset="86"/>
    <component base="leftdoubleflag" yOffset="367"/>
  </outline>
</glyph>
<glyph name="qyu-ethiopic" format="2">
  <advance width="455"/>
  <unicode hex="2DC1"/>
  <note>
uni2DC1
</note>
  <anchor x="227" y="760" name="top"/>
  <outline>
    <contour>
      <point x="232" y="-3" type="curve"/>
      <point x="276" y="2" type="line"/>
      <point x="276" y="22" type="line"/>
      <point x="253" y="22"/>
      <point x="241" y="31"/>
      <point x="241" y="75" type="curve" smooth="yes"/>
      <point x="241" y="638" type="line"/>
      <point x="213" y="638" type="line"/>
      <point x="213" y="64" type="line" smooth="yes"/>
      <point x="213" y="26"/>
      <point x="220" y="7"/>
    </contour>
    <component base="midring" yOffset="-16"/>
    <component base="winghatshort" xOffset="64"/>
    <component base="rightdoubleflag" xOffset="243" yOffset="122"/>
  </outline>
</glyph>
<glyph name="tthu-ethiopic" format="2">
  <advance width="572"/>
  <unicode hex="AB01"/>
  <note>
uniAB01
</note>
  <anchor x="322" y="762" name="top"/>
  <outline>
    <contour>
      <point x="85" y="302" type="line"/>
      <point x="394" y="302" type="line"/>
      <point x="394" y="327" type="line"/>
      <point x="85" y="327" type="line"/>
    </contour>
    <component base="su-ethiopic"/>
  </outline>
</glyph>
<glyph name="tthi-ethiopic" format="2">
  <advance width="579"/>
  <unicode hex="AB02"/>
  <note>
uniAB02
</note>
  <anchor x="319" y="762" name="top"/>
  <outline>
    <contour>
      <point x="94" y="302" type="line"/>
      <point x="376" y="302" type="line"/>
      <point x="376" y="327" type="line"/>
      <point x="94" y="327" type="line"/>
    </contour>
    <component base="si-ethiopic" xOffset="1"/>
  </outline>
</glyph>
<glyph name="tthaa-ethiopic" format="2">
  <advance width="458"/>
  <unicode hex="AB03"/>
  <note>
uniAB03
</note>
  <anchor x="227" y="762" name="top"/>
  <outline>
    <contour>
      <point x="68" y="392" type="line"/>
      <point x="348" y="392" type="line"/>
      <point x="348" y="417" type="line"/>
      <point x="68" y="417" type="line"/>
    </contour>
    <component base="saa-ethiopic"/>
  </outline>
</glyph>
<glyph name="tthee-ethiopic" format="2">
  <advance width="606"/>
  <unicode hex="AB04"/>
  <note>
uniAB04
</note>
  <anchor x="332" y="762" name="top"/>
  <outline>
    <contour>
      <point x="90" y="300" type="line"/>
      <point x="375" y="300" type="line"/>
      <point x="375" y="325" type="line"/>
      <point x="90" y="325" type="line"/>
    </contour>
    <component base="see-ethiopic" xOffset="1"/>
  </outline>
</glyph>
<glyph name="tthe-ethiopic" format="2">
  <advance width="482"/>
  <unicode hex="AB05"/>
  <note>
uniAB05
</note>
  <anchor x="251" y="762" name="top"/>
  <outline>
    <contour>
      <point x="89" y="303" type="line"/>
      <point x="371" y="303" type="line"/>
      <point x="371" y="328" type="line"/>
      <point x="89" y="328" type="line"/>
    </contour>
    <component base="se-ethiopic" xOffset="1"/>
  </outline>
</glyph>
<glyph name="ddhu-ethiopic" format="2">
  <advance width="725"/>
  <unicode hex="AB09"/>
  <note>
uniAB09
</note>
  <anchor x="362" y="830" name="top"/>
  <outline>
    <contour>
      <point x="153" y="564" type="line"/>
      <point x="383" y="564" type="line"/>
      <point x="383" y="589" type="line"/>
      <point x="153" y="589" type="line"/>
    </contour>
    <component base="ddu-ethiopic" xOffset="10"/>
  </outline>
</glyph>
<glyph name="ddhaa-ethiopic" format="2">
  <advance width="580"/>
  <unicode hex="AB0B"/>
  <note>
uniAB0B
</note>
  <anchor x="290" y="830" name="top"/>
  <outline>
    <contour>
      <point x="154" y="571" type="line"/>
      <point x="381" y="571" type="line"/>
      <point x="381" y="596" type="line"/>
      <point x="154" y="596" type="line"/>
    </contour>
    <component base="ddaa-ethiopic" xOffset="10"/>
  </outline>
</glyph>
<glyph name="ddhee-ethiopic" format="2">
  <advance width="510"/>
  <unicode hex="AB0C"/>
  <note>
uniAB0C
</note>
  <anchor x="255" y="773" name="top"/>
  <outline>
    <contour>
      <point x="148" y="508" type="line"/>
      <point x="378" y="508" type="line"/>
      <point x="378" y="533" type="line"/>
      <point x="148" y="533" type="line"/>
    </contour>
    <component base="ddee-ethiopic"/>
  </outline>
</glyph>
<glyph name="ddho-ethiopic" format="2">
  <advance width="540"/>
  <unicode hex="AB0E"/>
  <note>
uniAB0E
</note>
  <anchor x="274" y="830" name="top"/>
  <outline>
    <contour>
      <point x="164" y="568" type="line"/>
      <point x="394" y="568" type="line"/>
      <point x="394" y="593" type="line"/>
      <point x="164" y="593" type="line"/>
    </contour>
    <component base="ddo-ethiopic"/>
  </outline>
</glyph>
<glyph name="cchhee-ethiopic" format="2">
  <advance width="973"/>
  <unicode hex="AB24"/>
  <note>
uniAB24
</note>
  <anchor x="509" y="793" name="top"/>
  <outline>
    <contour>
      <point x="611" y="435" type="line"/>
      <point x="685" y="435" type="line"/>
      <point x="685" y="460" type="line"/>
      <point x="611" y="460" type="line"/>
    </contour>
    <component base="cchha-ethiopic"/>
    <component base="rightbulbsmall" xOffset="647" yOffset="91"/>
  </outline>
</glyph>
<glyph name="eightyIni-ethiopic" format="2">
  <advance width="532"/>
  <note>
uni1379
</note>
  <outline>
    <contour>
      <point x="142" y="748" type="line"/>
      <point x="552" y="748" type="line"/>
      <point x="552" y="773" type="line"/>
      <point x="142" y="773" type="line"/>
    </contour>
    <contour>
      <point x="142" y="0" type="line"/>
      <point x="552" y="0" type="line"/>
      <point x="552" y="25" type="line"/>
      <point x="142" y="25" type="line"/>
    </contour>
    <component base="eightyform" xOffset="2"/>
    <component base="leftsingleflag" xOffset="3" yOffset="386"/>
    <component base="leftsingleflag" yOffset="-362"/>
  </outline>
</glyph>
<glyph name="fortyMed-ethiopic" format="2">
  <advance width="474"/>
  <note>
uni1375
</note>
  <outline>
    <contour>
      <point x="-20" y="748" type="line"/>
      <point x="494" y="748" type="line"/>
      <point x="494" y="773" type="line"/>
      <point x="-20" y="773" type="line"/>
    </contour>
    <contour>
      <point x="-20" y="0" type="line"/>
      <point x="494" y="0" type="line"/>
      <point x="494" y="25" type="line"/>
      <point x="-20" y="25" type="line"/>
    </contour>
    <component base="fortyform" xOffset="-39"/>
  </outline>
</glyph>
<glyph name="twentyIni-ethiopic" format="2">
  <advance width="432"/>
  <note>
uni1373
</note>
  <outline>
    <contour>
      <point x="114" y="748" type="line"/>
      <point x="452" y="748" type="line"/>
      <point x="452" y="773" type="line"/>
      <point x="114" y="773" type="line"/>
    </contour>
    <contour>
      <point x="114" y="0" type="line"/>
      <point x="452" y="0" type="line"/>
      <point x="452" y="25" type="line"/>
      <point x="114" y="25" type="line"/>
    </contour>
    <component base="twentyform" xOffset="17"/>
    <component base="leftsingleflag" xOffset="4" yOffset="386"/>
    <component base="leftsingleflag" yOffset="-362"/>
  </outline>
</glyph>
